<svg xmlns="http://www.w3.org/2000/svg" width="382" height="407" viewBox="0 0 382 407" fill="none">
<path d="M306.424 180.08L187.721 168.513C104.328 131.499 251.793 139.68 335.95 148.397C357.843 191.815 396.567 282.473 376.321 297.762C356.075 313.051 340.971 314.526 335.95 313.352C293.168 302.623 223.754 282.272 288.348 286.698C352.942 291.124 327.313 217.464 306.424 180.08Z" fill="white"/>
<path d="M59.6679 161.707C83.3346 101.374 154.068 2.00729 247.668 87.2073L261.668 36.2073C271.096 18.431 176.718 -17.6484 122.168 10.2073C95.8346 22.5407 36.1679 73.0074 8.16793 176.207C-19.8321 279.407 30.8346 284.207 59.6679 273.707C89.5013 257.947 156.268 240.783 184.668 298.207C213.068 355.632 154.835 359.468 122.168 354.207C65.3346 338.874 -26.7321 322.607 59.6679 380.207C146.068 437.807 197.335 386.874 212.168 354.207C251.668 283.207 298.068 156.607 167.668 218.207C37.2679 279.807 41.3346 206.207 59.6679 161.707Z" fill="white"/>
</svg>